<mxfile host="Electron" agent="Mozilla/5.0 (Windows NT 10.0; Win64; x64) AppleWebKit/537.36 (KHTML, like Gecko) draw.io/24.7.8 Chrome/128.0.6613.36 Electron/32.0.1 Safari/537.36" version="24.7.8">
  <diagram name="PÃ¡gina-1" id="69ANGYcBKb3ediSGIogr">
    <mxGraphModel dx="1313" dy="1945" grid="1" gridSize="10" guides="1" tooltips="1" connect="1" arrows="1" fold="1" page="1" pageScale="1" pageWidth="827" pageHeight="1169" math="0" shadow="0">
      <root>
        <mxCell id="0" />
        <mxCell id="1" parent="0" />
        <mxCell id="p88mCyawq-PwxwcCo3Ut-73" style="edgeStyle=orthogonalEdgeStyle;rounded=0;orthogonalLoop=1;jettySize=auto;html=1;exitX=1;exitY=0.5;exitDx=0;exitDy=0;entryX=0.5;entryY=0;entryDx=0;entryDy=0;" edge="1" parent="1" source="p88mCyawq-PwxwcCo3Ut-1" target="p88mCyawq-PwxwcCo3Ut-72">
          <mxGeometry relative="1" as="geometry" />
        </mxCell>
        <mxCell id="p88mCyawq-PwxwcCo3Ut-79" style="edgeStyle=orthogonalEdgeStyle;rounded=0;orthogonalLoop=1;jettySize=auto;html=1;exitX=0.5;exitY=0;exitDx=0;exitDy=0;entryX=0;entryY=0.5;entryDx=0;entryDy=0;" edge="1" parent="1" source="p88mCyawq-PwxwcCo3Ut-1" target="p88mCyawq-PwxwcCo3Ut-78">
          <mxGeometry relative="1" as="geometry" />
        </mxCell>
        <mxCell id="p88mCyawq-PwxwcCo3Ut-85" style="edgeStyle=orthogonalEdgeStyle;rounded=0;orthogonalLoop=1;jettySize=auto;html=1;exitX=0;exitY=0.5;exitDx=0;exitDy=0;entryX=1;entryY=0.5;entryDx=0;entryDy=0;" edge="1" parent="1" source="p88mCyawq-PwxwcCo3Ut-1" target="p88mCyawq-PwxwcCo3Ut-84">
          <mxGeometry relative="1" as="geometry" />
        </mxCell>
        <mxCell id="p88mCyawq-PwxwcCo3Ut-105" style="edgeStyle=orthogonalEdgeStyle;rounded=0;orthogonalLoop=1;jettySize=auto;html=1;exitX=0.25;exitY=0;exitDx=0;exitDy=0;entryX=1;entryY=0.5;entryDx=0;entryDy=0;" edge="1" parent="1" source="p88mCyawq-PwxwcCo3Ut-1" target="p88mCyawq-PwxwcCo3Ut-104">
          <mxGeometry relative="1" as="geometry" />
        </mxCell>
        <mxCell id="p88mCyawq-PwxwcCo3Ut-140" style="edgeStyle=orthogonalEdgeStyle;rounded=0;orthogonalLoop=1;jettySize=auto;html=1;exitX=1;exitY=0.75;exitDx=0;exitDy=0;entryX=0.5;entryY=0;entryDx=0;entryDy=0;" edge="1" parent="1" source="p88mCyawq-PwxwcCo3Ut-1" target="p88mCyawq-PwxwcCo3Ut-137">
          <mxGeometry relative="1" as="geometry" />
        </mxCell>
        <mxCell id="p88mCyawq-PwxwcCo3Ut-1" value="Protagonista" style="rounded=0;whiteSpace=wrap;html=1;" vertex="1" parent="1">
          <mxGeometry x="587.5" y="220" width="120" height="60" as="geometry" />
        </mxCell>
        <mxCell id="p88mCyawq-PwxwcCo3Ut-128" style="edgeStyle=orthogonalEdgeStyle;rounded=0;orthogonalLoop=1;jettySize=auto;html=1;exitX=0.5;exitY=0;exitDx=0;exitDy=0;entryX=0.5;entryY=1;entryDx=0;entryDy=0;" edge="1" parent="1" source="p88mCyawq-PwxwcCo3Ut-2" target="p88mCyawq-PwxwcCo3Ut-1">
          <mxGeometry relative="1" as="geometry" />
        </mxCell>
        <mxCell id="p88mCyawq-PwxwcCo3Ut-2" value="nombre" style="ellipse;whiteSpace=wrap;html=1;" vertex="1" parent="1">
          <mxGeometry x="592.5" y="310" width="105" height="50" as="geometry" />
        </mxCell>
        <mxCell id="p88mCyawq-PwxwcCo3Ut-4" value="puntos de vida" style="ellipse;whiteSpace=wrap;html=1;" vertex="1" parent="1">
          <mxGeometry x="590" y="450" width="110" height="45" as="geometry" />
        </mxCell>
        <mxCell id="p88mCyawq-PwxwcCo3Ut-80" style="edgeStyle=orthogonalEdgeStyle;rounded=0;orthogonalLoop=1;jettySize=auto;html=1;exitX=0;exitY=0.5;exitDx=0;exitDy=0;entryX=1;entryY=0.5;entryDx=0;entryDy=0;" edge="1" parent="1" source="p88mCyawq-PwxwcCo3Ut-10" target="p88mCyawq-PwxwcCo3Ut-78">
          <mxGeometry relative="1" as="geometry" />
        </mxCell>
        <mxCell id="p88mCyawq-PwxwcCo3Ut-10" value="Personaje&lt;div&gt;Secundario&lt;/div&gt;&lt;div&gt;NPC&lt;/div&gt;" style="rounded=0;whiteSpace=wrap;html=1;" vertex="1" parent="1">
          <mxGeometry x="1180" y="140" width="120" height="60" as="geometry" />
        </mxCell>
        <mxCell id="p88mCyawq-PwxwcCo3Ut-20" style="edgeStyle=orthogonalEdgeStyle;rounded=0;orthogonalLoop=1;jettySize=auto;html=1;exitX=0;exitY=0.5;exitDx=0;exitDy=0;entryX=1;entryY=0.5;entryDx=0;entryDy=0;" edge="1" parent="1" source="p88mCyawq-PwxwcCo3Ut-12" target="p88mCyawq-PwxwcCo3Ut-10">
          <mxGeometry relative="1" as="geometry" />
        </mxCell>
        <mxCell id="p88mCyawq-PwxwcCo3Ut-12" value="nombre" style="ellipse;whiteSpace=wrap;html=1;" vertex="1" parent="1">
          <mxGeometry x="1380" y="80" width="100" height="50" as="geometry" />
        </mxCell>
        <mxCell id="p88mCyawq-PwxwcCo3Ut-19" style="edgeStyle=orthogonalEdgeStyle;rounded=0;orthogonalLoop=1;jettySize=auto;html=1;exitX=0;exitY=0.5;exitDx=0;exitDy=0;entryX=1;entryY=0.5;entryDx=0;entryDy=0;" edge="1" parent="1" source="p88mCyawq-PwxwcCo3Ut-14" target="p88mCyawq-PwxwcCo3Ut-10">
          <mxGeometry relative="1" as="geometry" />
        </mxCell>
        <mxCell id="p88mCyawq-PwxwcCo3Ut-14" value="&lt;u&gt;idPersonaje&lt;/u&gt;" style="ellipse;whiteSpace=wrap;html=1;" vertex="1" parent="1">
          <mxGeometry x="1380" y="140" width="100" height="50" as="geometry" />
        </mxCell>
        <mxCell id="p88mCyawq-PwxwcCo3Ut-18" style="edgeStyle=orthogonalEdgeStyle;rounded=0;orthogonalLoop=1;jettySize=auto;html=1;exitX=0;exitY=0.5;exitDx=0;exitDy=0;entryX=1;entryY=0.5;entryDx=0;entryDy=0;" edge="1" parent="1" source="p88mCyawq-PwxwcCo3Ut-15" target="p88mCyawq-PwxwcCo3Ut-10">
          <mxGeometry relative="1" as="geometry" />
        </mxCell>
        <mxCell id="p88mCyawq-PwxwcCo3Ut-15" value="especie" style="ellipse;whiteSpace=wrap;html=1;" vertex="1" parent="1">
          <mxGeometry x="1380" y="200" width="100" height="50" as="geometry" />
        </mxCell>
        <mxCell id="p88mCyawq-PwxwcCo3Ut-17" style="edgeStyle=orthogonalEdgeStyle;rounded=0;orthogonalLoop=1;jettySize=auto;html=1;exitX=0;exitY=0.5;exitDx=0;exitDy=0;entryX=1;entryY=0.5;entryDx=0;entryDy=0;" edge="1" parent="1" source="p88mCyawq-PwxwcCo3Ut-16" target="p88mCyawq-PwxwcCo3Ut-10">
          <mxGeometry relative="1" as="geometry" />
        </mxCell>
        <mxCell id="p88mCyawq-PwxwcCo3Ut-16" value="frases" style="ellipse;whiteSpace=wrap;html=1;" vertex="1" parent="1">
          <mxGeometry x="1380" y="260" width="105" height="50" as="geometry" />
        </mxCell>
        <mxCell id="p88mCyawq-PwxwcCo3Ut-92" style="edgeStyle=orthogonalEdgeStyle;rounded=0;orthogonalLoop=1;jettySize=auto;html=1;exitX=0.5;exitY=1;exitDx=0;exitDy=0;entryX=1;entryY=0.5;entryDx=0;entryDy=0;" edge="1" parent="1" source="p88mCyawq-PwxwcCo3Ut-21" target="p88mCyawq-PwxwcCo3Ut-91">
          <mxGeometry relative="1" as="geometry" />
        </mxCell>
        <mxCell id="p88mCyawq-PwxwcCo3Ut-108" style="edgeStyle=orthogonalEdgeStyle;rounded=0;orthogonalLoop=1;jettySize=auto;html=1;exitX=1;exitY=0.5;exitDx=0;exitDy=0;entryX=0;entryY=0.5;entryDx=0;entryDy=0;" edge="1" parent="1" source="p88mCyawq-PwxwcCo3Ut-21" target="p88mCyawq-PwxwcCo3Ut-107">
          <mxGeometry relative="1" as="geometry" />
        </mxCell>
        <mxCell id="p88mCyawq-PwxwcCo3Ut-21" value="enemigo" style="rounded=0;whiteSpace=wrap;html=1;" vertex="1" parent="1">
          <mxGeometry x="360" width="120" height="60" as="geometry" />
        </mxCell>
        <mxCell id="p88mCyawq-PwxwcCo3Ut-31" style="edgeStyle=orthogonalEdgeStyle;rounded=0;orthogonalLoop=1;jettySize=auto;html=1;exitX=1;exitY=0.5;exitDx=0;exitDy=0;entryX=0;entryY=0.5;entryDx=0;entryDy=0;" edge="1" parent="1" source="p88mCyawq-PwxwcCo3Ut-22" target="p88mCyawq-PwxwcCo3Ut-21">
          <mxGeometry relative="1" as="geometry" />
        </mxCell>
        <mxCell id="p88mCyawq-PwxwcCo3Ut-22" value="nombre" style="ellipse;whiteSpace=wrap;html=1;" vertex="1" parent="1">
          <mxGeometry x="220" y="-80" width="100" height="50" as="geometry" />
        </mxCell>
        <mxCell id="p88mCyawq-PwxwcCo3Ut-30" style="edgeStyle=orthogonalEdgeStyle;rounded=0;orthogonalLoop=1;jettySize=auto;html=1;exitX=1;exitY=0.5;exitDx=0;exitDy=0;entryX=0;entryY=0.5;entryDx=0;entryDy=0;" edge="1" parent="1" source="p88mCyawq-PwxwcCo3Ut-23" target="p88mCyawq-PwxwcCo3Ut-21">
          <mxGeometry relative="1" as="geometry" />
        </mxCell>
        <mxCell id="p88mCyawq-PwxwcCo3Ut-23" value="&lt;u&gt;idPersonaje&lt;/u&gt;" style="ellipse;whiteSpace=wrap;html=1;" vertex="1" parent="1">
          <mxGeometry x="220" y="-20" width="100" height="50" as="geometry" />
        </mxCell>
        <mxCell id="p88mCyawq-PwxwcCo3Ut-29" style="edgeStyle=orthogonalEdgeStyle;rounded=0;orthogonalLoop=1;jettySize=auto;html=1;exitX=1;exitY=0.5;exitDx=0;exitDy=0;entryX=0;entryY=0.5;entryDx=0;entryDy=0;" edge="1" parent="1" source="p88mCyawq-PwxwcCo3Ut-24" target="p88mCyawq-PwxwcCo3Ut-21">
          <mxGeometry relative="1" as="geometry" />
        </mxCell>
        <mxCell id="p88mCyawq-PwxwcCo3Ut-24" value="puntos de vida" style="ellipse;whiteSpace=wrap;html=1;" vertex="1" parent="1">
          <mxGeometry x="220" y="40" width="100" height="50" as="geometry" />
        </mxCell>
        <mxCell id="p88mCyawq-PwxwcCo3Ut-26" value="&lt;u&gt;idPersonaje&lt;/u&gt;" style="ellipse;whiteSpace=wrap;html=1;" vertex="1" parent="1">
          <mxGeometry x="595" y="380" width="100" height="50" as="geometry" />
        </mxCell>
        <mxCell id="p88mCyawq-PwxwcCo3Ut-87" style="edgeStyle=orthogonalEdgeStyle;rounded=0;orthogonalLoop=1;jettySize=auto;html=1;exitX=1;exitY=0.5;exitDx=0;exitDy=0;entryX=0;entryY=0.5;entryDx=0;entryDy=0;" edge="1" parent="1" source="p88mCyawq-PwxwcCo3Ut-32" target="p88mCyawq-PwxwcCo3Ut-84">
          <mxGeometry relative="1" as="geometry" />
        </mxCell>
        <mxCell id="p88mCyawq-PwxwcCo3Ut-93" style="edgeStyle=orthogonalEdgeStyle;rounded=0;orthogonalLoop=1;jettySize=auto;html=1;exitX=0.5;exitY=0;exitDx=0;exitDy=0;entryX=0.5;entryY=1;entryDx=0;entryDy=0;" edge="1" parent="1" source="p88mCyawq-PwxwcCo3Ut-32" target="p88mCyawq-PwxwcCo3Ut-91">
          <mxGeometry relative="1" as="geometry" />
        </mxCell>
        <mxCell id="p88mCyawq-PwxwcCo3Ut-32" value="Ataque" style="rounded=0;whiteSpace=wrap;html=1;" vertex="1" parent="1">
          <mxGeometry x="174" y="220" width="120" height="60" as="geometry" />
        </mxCell>
        <mxCell id="p88mCyawq-PwxwcCo3Ut-35" style="edgeStyle=orthogonalEdgeStyle;rounded=0;orthogonalLoop=1;jettySize=auto;html=1;exitX=1;exitY=0.5;exitDx=0;exitDy=0;entryX=0.5;entryY=1;entryDx=0;entryDy=0;" edge="1" parent="1" source="p88mCyawq-PwxwcCo3Ut-34" target="p88mCyawq-PwxwcCo3Ut-32">
          <mxGeometry relative="1" as="geometry" />
        </mxCell>
        <mxCell id="p88mCyawq-PwxwcCo3Ut-34" value="&lt;u&gt;idMovimiento&lt;/u&gt;" style="ellipse;whiteSpace=wrap;html=1;" vertex="1" parent="1">
          <mxGeometry x="40" y="280" width="100" height="50" as="geometry" />
        </mxCell>
        <mxCell id="p88mCyawq-PwxwcCo3Ut-37" style="edgeStyle=orthogonalEdgeStyle;rounded=0;orthogonalLoop=1;jettySize=auto;html=1;exitX=1;exitY=0.5;exitDx=0;exitDy=0;entryX=0.5;entryY=1;entryDx=0;entryDy=0;" edge="1" parent="1" source="p88mCyawq-PwxwcCo3Ut-36" target="p88mCyawq-PwxwcCo3Ut-32">
          <mxGeometry relative="1" as="geometry" />
        </mxCell>
        <mxCell id="p88mCyawq-PwxwcCo3Ut-36" value="nombre" style="ellipse;whiteSpace=wrap;html=1;" vertex="1" parent="1">
          <mxGeometry x="40" y="360" width="100" height="50" as="geometry" />
        </mxCell>
        <mxCell id="p88mCyawq-PwxwcCo3Ut-38" value="daÃ±o" style="ellipse;whiteSpace=wrap;html=1;" vertex="1" parent="1">
          <mxGeometry x="40" y="437.5" width="100" height="50" as="geometry" />
        </mxCell>
        <mxCell id="p88mCyawq-PwxwcCo3Ut-74" style="edgeStyle=orthogonalEdgeStyle;rounded=0;orthogonalLoop=1;jettySize=auto;html=1;exitX=0.5;exitY=0;exitDx=0;exitDy=0;entryX=0.5;entryY=1;entryDx=0;entryDy=0;" edge="1" parent="1" source="p88mCyawq-PwxwcCo3Ut-39" target="p88mCyawq-PwxwcCo3Ut-72">
          <mxGeometry relative="1" as="geometry" />
        </mxCell>
        <mxCell id="p88mCyawq-PwxwcCo3Ut-39" value="puzzle" style="rounded=0;whiteSpace=wrap;html=1;" vertex="1" parent="1">
          <mxGeometry x="850" y="420" width="120" height="60" as="geometry" />
        </mxCell>
        <mxCell id="p88mCyawq-PwxwcCo3Ut-40" style="edgeStyle=orthogonalEdgeStyle;rounded=0;orthogonalLoop=1;jettySize=auto;html=1;exitX=0.5;exitY=1;exitDx=0;exitDy=0;" edge="1" parent="1">
          <mxGeometry relative="1" as="geometry">
            <mxPoint x="647.5" y="460" as="sourcePoint" />
            <mxPoint x="647.5" y="460" as="targetPoint" />
          </mxGeometry>
        </mxCell>
        <mxCell id="p88mCyawq-PwxwcCo3Ut-41" value="" style="endArrow=none;html=1;rounded=0;" edge="1" parent="1" source="p88mCyawq-PwxwcCo3Ut-4" target="p88mCyawq-PwxwcCo3Ut-26">
          <mxGeometry width="50" height="50" relative="1" as="geometry">
            <mxPoint x="480" y="450" as="sourcePoint" />
            <mxPoint x="530" y="400" as="targetPoint" />
          </mxGeometry>
        </mxCell>
        <mxCell id="p88mCyawq-PwxwcCo3Ut-46" value="nombre" style="ellipse;whiteSpace=wrap;html=1;" vertex="1" parent="1">
          <mxGeometry x="850" y="570" width="120" height="56" as="geometry" />
        </mxCell>
        <mxCell id="p88mCyawq-PwxwcCo3Ut-48" value="&lt;u&gt;isPuzzlw&lt;/u&gt;" style="ellipse;whiteSpace=wrap;html=1;" vertex="1" parent="1">
          <mxGeometry x="850" y="500" width="120" height="56" as="geometry" />
        </mxCell>
        <mxCell id="p88mCyawq-PwxwcCo3Ut-49" value="puntuacion" style="ellipse;whiteSpace=wrap;html=1;" vertex="1" parent="1">
          <mxGeometry x="850" y="650" width="120" height="56" as="geometry" />
        </mxCell>
        <mxCell id="p88mCyawq-PwxwcCo3Ut-99" style="edgeStyle=orthogonalEdgeStyle;rounded=0;orthogonalLoop=1;jettySize=auto;html=1;exitX=1;exitY=0.5;exitDx=0;exitDy=0;entryX=0;entryY=0.5;entryDx=0;entryDy=0;" edge="1" parent="1" source="p88mCyawq-PwxwcCo3Ut-50" target="p88mCyawq-PwxwcCo3Ut-98">
          <mxGeometry relative="1" as="geometry" />
        </mxCell>
        <mxCell id="p88mCyawq-PwxwcCo3Ut-50" value="Batalla" style="rounded=0;whiteSpace=wrap;html=1;" vertex="1" parent="1">
          <mxGeometry x="597.5" y="30" width="120" height="60" as="geometry" />
        </mxCell>
        <mxCell id="p88mCyawq-PwxwcCo3Ut-55" style="edgeStyle=orthogonalEdgeStyle;rounded=0;orthogonalLoop=1;jettySize=auto;html=1;exitX=0.5;exitY=1;exitDx=0;exitDy=0;entryX=0.5;entryY=0;entryDx=0;entryDy=0;" edge="1" parent="1" source="p88mCyawq-PwxwcCo3Ut-51" target="p88mCyawq-PwxwcCo3Ut-50">
          <mxGeometry relative="1" as="geometry" />
        </mxCell>
        <mxCell id="p88mCyawq-PwxwcCo3Ut-51" value="nombre" style="ellipse;whiteSpace=wrap;html=1;" vertex="1" parent="1">
          <mxGeometry x="601.25" y="-85" width="112.5" height="60" as="geometry" />
        </mxCell>
        <mxCell id="p88mCyawq-PwxwcCo3Ut-56" style="edgeStyle=orthogonalEdgeStyle;rounded=0;orthogonalLoop=1;jettySize=auto;html=1;exitX=0.5;exitY=1;exitDx=0;exitDy=0;entryX=0.5;entryY=0;entryDx=0;entryDy=0;" edge="1" parent="1" source="p88mCyawq-PwxwcCo3Ut-52" target="p88mCyawq-PwxwcCo3Ut-50">
          <mxGeometry relative="1" as="geometry" />
        </mxCell>
        <mxCell id="p88mCyawq-PwxwcCo3Ut-52" value="&lt;u&gt;idBatalla&lt;/u&gt;" style="ellipse;whiteSpace=wrap;html=1;" vertex="1" parent="1">
          <mxGeometry x="730" y="-90" width="120" height="70" as="geometry" />
        </mxCell>
        <mxCell id="p88mCyawq-PwxwcCo3Ut-100" style="edgeStyle=orthogonalEdgeStyle;rounded=0;orthogonalLoop=1;jettySize=auto;html=1;exitX=0;exitY=0.5;exitDx=0;exitDy=0;entryX=1;entryY=0.5;entryDx=0;entryDy=0;" edge="1" parent="1" source="p88mCyawq-PwxwcCo3Ut-58" target="p88mCyawq-PwxwcCo3Ut-98">
          <mxGeometry relative="1" as="geometry" />
        </mxCell>
        <mxCell id="p88mCyawq-PwxwcCo3Ut-58" value="Escenario" style="rounded=0;whiteSpace=wrap;html=1;" vertex="1" parent="1">
          <mxGeometry x="1010" y="30" width="120" height="60" as="geometry" />
        </mxCell>
        <mxCell id="p88mCyawq-PwxwcCo3Ut-62" style="edgeStyle=orthogonalEdgeStyle;rounded=0;orthogonalLoop=1;jettySize=auto;html=1;exitX=0.5;exitY=1;exitDx=0;exitDy=0;entryX=0.5;entryY=0;entryDx=0;entryDy=0;" edge="1" parent="1" source="p88mCyawq-PwxwcCo3Ut-59" target="p88mCyawq-PwxwcCo3Ut-58">
          <mxGeometry relative="1" as="geometry" />
        </mxCell>
        <mxCell id="p88mCyawq-PwxwcCo3Ut-59" value="&lt;u&gt;idEscenario&lt;/u&gt;" style="ellipse;whiteSpace=wrap;html=1;" vertex="1" parent="1">
          <mxGeometry x="940" y="-90" width="110" height="60" as="geometry" />
        </mxCell>
        <mxCell id="p88mCyawq-PwxwcCo3Ut-63" style="edgeStyle=orthogonalEdgeStyle;rounded=0;orthogonalLoop=1;jettySize=auto;html=1;exitX=0.5;exitY=1;exitDx=0;exitDy=0;entryX=0.5;entryY=0;entryDx=0;entryDy=0;" edge="1" parent="1" source="p88mCyawq-PwxwcCo3Ut-61" target="p88mCyawq-PwxwcCo3Ut-58">
          <mxGeometry relative="1" as="geometry" />
        </mxCell>
        <mxCell id="p88mCyawq-PwxwcCo3Ut-61" value="momento&lt;div&gt;atmosferico&lt;/div&gt;" style="ellipse;whiteSpace=wrap;html=1;" vertex="1" parent="1">
          <mxGeometry x="1080" y="-80" width="100" height="50" as="geometry" />
        </mxCell>
        <mxCell id="p88mCyawq-PwxwcCo3Ut-66" style="edgeStyle=orthogonalEdgeStyle;rounded=0;orthogonalLoop=1;jettySize=auto;html=1;exitX=0.5;exitY=1;exitDx=0;exitDy=0;entryX=0.5;entryY=0;entryDx=0;entryDy=0;" edge="1" parent="1" source="p88mCyawq-PwxwcCo3Ut-64" target="p88mCyawq-PwxwcCo3Ut-58">
          <mxGeometry relative="1" as="geometry" />
        </mxCell>
        <mxCell id="p88mCyawq-PwxwcCo3Ut-64" value="momento&lt;div&gt;dia&lt;/div&gt;" style="ellipse;whiteSpace=wrap;html=1;" vertex="1" parent="1">
          <mxGeometry x="1200" y="-80" width="100" height="50" as="geometry" />
        </mxCell>
        <mxCell id="p88mCyawq-PwxwcCo3Ut-67" style="edgeStyle=orthogonalEdgeStyle;rounded=0;orthogonalLoop=1;jettySize=auto;html=1;exitX=0.5;exitY=1;exitDx=0;exitDy=0;entryX=0.5;entryY=0;entryDx=0;entryDy=0;" edge="1" parent="1" source="p88mCyawq-PwxwcCo3Ut-65" target="p88mCyawq-PwxwcCo3Ut-58">
          <mxGeometry relative="1" as="geometry" />
        </mxCell>
        <mxCell id="p88mCyawq-PwxwcCo3Ut-65" value="condicion&lt;div&gt;terreno&lt;/div&gt;" style="ellipse;whiteSpace=wrap;html=1;" vertex="1" parent="1">
          <mxGeometry x="1340" y="-80" width="100" height="50" as="geometry" />
        </mxCell>
        <mxCell id="p88mCyawq-PwxwcCo3Ut-68" value="" style="endArrow=classic;html=1;rounded=0;" edge="1" parent="1" source="p88mCyawq-PwxwcCo3Ut-48" target="p88mCyawq-PwxwcCo3Ut-39">
          <mxGeometry width="50" height="50" relative="1" as="geometry">
            <mxPoint x="720" y="460" as="sourcePoint" />
            <mxPoint x="770" y="410" as="targetPoint" />
          </mxGeometry>
        </mxCell>
        <mxCell id="p88mCyawq-PwxwcCo3Ut-69" value="" style="endArrow=none;html=1;rounded=0;" edge="1" parent="1" source="p88mCyawq-PwxwcCo3Ut-46" target="p88mCyawq-PwxwcCo3Ut-48">
          <mxGeometry width="50" height="50" relative="1" as="geometry">
            <mxPoint x="740" y="570" as="sourcePoint" />
            <mxPoint x="790" y="520" as="targetPoint" />
          </mxGeometry>
        </mxCell>
        <mxCell id="p88mCyawq-PwxwcCo3Ut-70" value="" style="endArrow=none;html=1;rounded=0;" edge="1" parent="1" source="p88mCyawq-PwxwcCo3Ut-49" target="p88mCyawq-PwxwcCo3Ut-46">
          <mxGeometry width="50" height="50" relative="1" as="geometry">
            <mxPoint x="740" y="580" as="sourcePoint" />
            <mxPoint x="790" y="530" as="targetPoint" />
          </mxGeometry>
        </mxCell>
        <mxCell id="p88mCyawq-PwxwcCo3Ut-72" value="juega" style="rhombus;whiteSpace=wrap;html=1;" vertex="1" parent="1">
          <mxGeometry x="870" y="275" width="80" height="80" as="geometry" />
        </mxCell>
        <mxCell id="p88mCyawq-PwxwcCo3Ut-75" value="1:n" style="text;html=1;align=center;verticalAlign=middle;whiteSpace=wrap;rounded=0;" vertex="1" parent="1">
          <mxGeometry x="840" y="370" width="60" height="30" as="geometry" />
        </mxCell>
        <mxCell id="p88mCyawq-PwxwcCo3Ut-76" value="1:!" style="text;html=1;align=center;verticalAlign=middle;whiteSpace=wrap;rounded=0;" vertex="1" parent="1">
          <mxGeometry x="840" y="220" width="60" height="30" as="geometry" />
        </mxCell>
        <mxCell id="p88mCyawq-PwxwcCo3Ut-77" value="1:n" style="text;html=1;align=center;verticalAlign=middle;whiteSpace=wrap;rounded=0;" vertex="1" parent="1">
          <mxGeometry x="810" y="301" width="60" height="30" as="geometry" />
        </mxCell>
        <mxCell id="p88mCyawq-PwxwcCo3Ut-78" value="habla" style="rhombus;whiteSpace=wrap;html=1;" vertex="1" parent="1">
          <mxGeometry x="890" y="130" width="80" height="80" as="geometry" />
        </mxCell>
        <mxCell id="p88mCyawq-PwxwcCo3Ut-81" value="1:n" style="text;html=1;align=center;verticalAlign=middle;whiteSpace=wrap;rounded=0;" vertex="1" parent="1">
          <mxGeometry x="990" y="140" width="60" height="30" as="geometry" />
        </mxCell>
        <mxCell id="p88mCyawq-PwxwcCo3Ut-82" value="1:1" style="text;html=1;align=center;verticalAlign=middle;whiteSpace=wrap;rounded=0;" vertex="1" parent="1">
          <mxGeometry x="800" y="140" width="60" height="30" as="geometry" />
        </mxCell>
        <mxCell id="p88mCyawq-PwxwcCo3Ut-84" value="tiene" style="rhombus;whiteSpace=wrap;html=1;" vertex="1" parent="1">
          <mxGeometry x="414" y="210" width="80" height="80" as="geometry" />
        </mxCell>
        <mxCell id="p88mCyawq-PwxwcCo3Ut-88" value="1:n" style="text;html=1;align=center;verticalAlign=middle;whiteSpace=wrap;rounded=0;" vertex="1" parent="1">
          <mxGeometry x="354" y="210" width="60" height="30" as="geometry" />
        </mxCell>
        <mxCell id="p88mCyawq-PwxwcCo3Ut-89" value="1:1" style="text;html=1;align=center;verticalAlign=middle;whiteSpace=wrap;rounded=0;" vertex="1" parent="1">
          <mxGeometry x="500" y="210" width="60" height="30" as="geometry" />
        </mxCell>
        <mxCell id="p88mCyawq-PwxwcCo3Ut-90" value="1:n" style="text;html=1;align=center;verticalAlign=middle;whiteSpace=wrap;rounded=0;" vertex="1" parent="1">
          <mxGeometry x="424" y="170" width="60" height="30" as="geometry" />
        </mxCell>
        <mxCell id="p88mCyawq-PwxwcCo3Ut-91" value="tiene" style="rhombus;whiteSpace=wrap;html=1;" vertex="1" parent="1">
          <mxGeometry x="194" y="110" width="80" height="80" as="geometry" />
        </mxCell>
        <mxCell id="p88mCyawq-PwxwcCo3Ut-94" value="1:n" style="text;html=1;align=center;verticalAlign=middle;whiteSpace=wrap;rounded=0;" vertex="1" parent="1">
          <mxGeometry x="150" y="180" width="60" height="30" as="geometry" />
        </mxCell>
        <mxCell id="p88mCyawq-PwxwcCo3Ut-95" value="1:1" style="text;html=1;align=center;verticalAlign=middle;whiteSpace=wrap;rounded=0;" vertex="1" parent="1">
          <mxGeometry x="280" y="110" width="60" height="30" as="geometry" />
        </mxCell>
        <mxCell id="p88mCyawq-PwxwcCo3Ut-98" value="tiene" style="rhombus;whiteSpace=wrap;html=1;" vertex="1" parent="1">
          <mxGeometry x="827" y="25" width="80" height="80" as="geometry" />
        </mxCell>
        <mxCell id="p88mCyawq-PwxwcCo3Ut-101" value="1:1" style="text;html=1;align=center;verticalAlign=middle;whiteSpace=wrap;rounded=0;" vertex="1" parent="1">
          <mxGeometry x="930" y="25" width="60" height="30" as="geometry" />
        </mxCell>
        <mxCell id="p88mCyawq-PwxwcCo3Ut-102" value="1:n" style="text;html=1;align=center;verticalAlign=middle;whiteSpace=wrap;rounded=0;" vertex="1" parent="1">
          <mxGeometry x="740" y="30" width="60" height="30" as="geometry" />
        </mxCell>
        <mxCell id="p88mCyawq-PwxwcCo3Ut-103" value="1:n" style="text;html=1;align=center;verticalAlign=middle;whiteSpace=wrap;rounded=0;" vertex="1" parent="1">
          <mxGeometry x="840" y="-4" width="60" height="30" as="geometry" />
        </mxCell>
        <mxCell id="p88mCyawq-PwxwcCo3Ut-106" style="edgeStyle=orthogonalEdgeStyle;rounded=0;orthogonalLoop=1;jettySize=auto;html=1;exitX=0.5;exitY=0;exitDx=0;exitDy=0;entryX=0;entryY=0.5;entryDx=0;entryDy=0;" edge="1" parent="1" source="p88mCyawq-PwxwcCo3Ut-104" target="p88mCyawq-PwxwcCo3Ut-50">
          <mxGeometry relative="1" as="geometry" />
        </mxCell>
        <mxCell id="p88mCyawq-PwxwcCo3Ut-104" value="lucha" style="rhombus;whiteSpace=wrap;html=1;" vertex="1" parent="1">
          <mxGeometry x="480" y="90" width="80" height="80" as="geometry" />
        </mxCell>
        <mxCell id="p88mCyawq-PwxwcCo3Ut-109" style="edgeStyle=orthogonalEdgeStyle;rounded=0;orthogonalLoop=1;jettySize=auto;html=1;exitX=0.5;exitY=1;exitDx=0;exitDy=0;entryX=0.25;entryY=0;entryDx=0;entryDy=0;" edge="1" parent="1" source="p88mCyawq-PwxwcCo3Ut-107" target="p88mCyawq-PwxwcCo3Ut-50">
          <mxGeometry relative="1" as="geometry">
            <Array as="points">
              <mxPoint x="594" y="25" />
              <mxPoint x="594" y="10" />
              <mxPoint x="627" y="10" />
            </Array>
          </mxGeometry>
        </mxCell>
        <mxCell id="p88mCyawq-PwxwcCo3Ut-107" value="lucha" style="rhombus;whiteSpace=wrap;html=1;" vertex="1" parent="1">
          <mxGeometry x="500" y="-90" width="80" height="80" as="geometry" />
        </mxCell>
        <mxCell id="p88mCyawq-PwxwcCo3Ut-112" value="1:n" style="text;html=1;align=center;verticalAlign=middle;whiteSpace=wrap;rounded=0;" vertex="1" parent="1">
          <mxGeometry x="550" y="-4" width="60" height="30" as="geometry" />
        </mxCell>
        <mxCell id="p88mCyawq-PwxwcCo3Ut-113" value="1:!" style="text;html=1;align=center;verticalAlign=middle;whiteSpace=wrap;rounded=0;" vertex="1" parent="1">
          <mxGeometry x="414" y="-39" width="60" height="30" as="geometry" />
        </mxCell>
        <mxCell id="p88mCyawq-PwxwcCo3Ut-114" value="1:m" style="text;html=1;align=center;verticalAlign=middle;whiteSpace=wrap;rounded=0;" vertex="1" parent="1">
          <mxGeometry x="541" y="45" width="60" height="30" as="geometry" />
        </mxCell>
        <mxCell id="p88mCyawq-PwxwcCo3Ut-115" value="1:1" style="text;html=1;align=center;verticalAlign=middle;whiteSpace=wrap;rounded=0;" vertex="1" parent="1">
          <mxGeometry x="560" y="140" width="60" height="30" as="geometry" />
        </mxCell>
        <mxCell id="p88mCyawq-PwxwcCo3Ut-117" value="" style="endArrow=none;html=1;rounded=0;" edge="1" parent="1" source="p88mCyawq-PwxwcCo3Ut-26" target="p88mCyawq-PwxwcCo3Ut-2">
          <mxGeometry width="50" height="50" relative="1" as="geometry">
            <mxPoint x="600" y="480" as="sourcePoint" />
            <mxPoint x="650" y="430" as="targetPoint" />
          </mxGeometry>
        </mxCell>
        <mxCell id="p88mCyawq-PwxwcCo3Ut-124" style="edgeStyle=orthogonalEdgeStyle;rounded=0;orthogonalLoop=1;jettySize=auto;html=1;exitX=0.5;exitY=0;exitDx=0;exitDy=0;entryX=0;entryY=0.5;entryDx=0;entryDy=0;" edge="1" parent="1" source="p88mCyawq-PwxwcCo3Ut-118" target="p88mCyawq-PwxwcCo3Ut-123">
          <mxGeometry relative="1" as="geometry" />
        </mxCell>
        <mxCell id="p88mCyawq-PwxwcCo3Ut-118" value="Final" style="rounded=0;whiteSpace=wrap;html=1;" vertex="1" parent="1">
          <mxGeometry x="374" y="355" width="120" height="60" as="geometry" />
        </mxCell>
        <mxCell id="p88mCyawq-PwxwcCo3Ut-120" style="edgeStyle=orthogonalEdgeStyle;rounded=0;orthogonalLoop=1;jettySize=auto;html=1;exitX=1;exitY=0.5;exitDx=0;exitDy=0;entryX=0.5;entryY=1;entryDx=0;entryDy=0;" edge="1" parent="1" source="p88mCyawq-PwxwcCo3Ut-119" target="p88mCyawq-PwxwcCo3Ut-118">
          <mxGeometry relative="1" as="geometry" />
        </mxCell>
        <mxCell id="p88mCyawq-PwxwcCo3Ut-119" value="&lt;u&gt;idFinal&lt;/u&gt;" style="ellipse;whiteSpace=wrap;html=1;" vertex="1" parent="1">
          <mxGeometry x="270" y="465" width="90" height="45" as="geometry" />
        </mxCell>
        <mxCell id="p88mCyawq-PwxwcCo3Ut-122" style="edgeStyle=orthogonalEdgeStyle;rounded=0;orthogonalLoop=1;jettySize=auto;html=1;exitX=1;exitY=0.5;exitDx=0;exitDy=0;entryX=0.5;entryY=1;entryDx=0;entryDy=0;" edge="1" parent="1" source="p88mCyawq-PwxwcCo3Ut-121" target="p88mCyawq-PwxwcCo3Ut-118">
          <mxGeometry relative="1" as="geometry" />
        </mxCell>
        <mxCell id="p88mCyawq-PwxwcCo3Ut-121" value="contexto" style="ellipse;whiteSpace=wrap;html=1;" vertex="1" parent="1">
          <mxGeometry x="264" y="534" width="90" height="50" as="geometry" />
        </mxCell>
        <mxCell id="p88mCyawq-PwxwcCo3Ut-125" style="edgeStyle=orthogonalEdgeStyle;rounded=0;orthogonalLoop=1;jettySize=auto;html=1;exitX=1;exitY=0.5;exitDx=0;exitDy=0;entryX=0;entryY=0.75;entryDx=0;entryDy=0;" edge="1" parent="1" source="p88mCyawq-PwxwcCo3Ut-123" target="p88mCyawq-PwxwcCo3Ut-1">
          <mxGeometry relative="1" as="geometry" />
        </mxCell>
        <mxCell id="p88mCyawq-PwxwcCo3Ut-123" value="tiene" style="rhombus;whiteSpace=wrap;html=1;" vertex="1" parent="1">
          <mxGeometry x="460" y="280" width="70" height="60" as="geometry" />
        </mxCell>
        <mxCell id="p88mCyawq-PwxwcCo3Ut-126" value="1:n" style="text;html=1;align=center;verticalAlign=middle;whiteSpace=wrap;rounded=0;" vertex="1" parent="1">
          <mxGeometry x="364" y="310" width="60" height="30" as="geometry" />
        </mxCell>
        <mxCell id="p88mCyawq-PwxwcCo3Ut-127" value="1:1" style="text;html=1;align=center;verticalAlign=middle;whiteSpace=wrap;rounded=0;" vertex="1" parent="1">
          <mxGeometry x="510" y="260" width="60" height="30" as="geometry" />
        </mxCell>
        <mxCell id="p88mCyawq-PwxwcCo3Ut-138" style="edgeStyle=orthogonalEdgeStyle;rounded=0;orthogonalLoop=1;jettySize=auto;html=1;exitX=1;exitY=0.5;exitDx=0;exitDy=0;entryX=0.5;entryY=1;entryDx=0;entryDy=0;" edge="1" parent="1" source="p88mCyawq-PwxwcCo3Ut-129" target="p88mCyawq-PwxwcCo3Ut-137">
          <mxGeometry relative="1" as="geometry" />
        </mxCell>
        <mxCell id="p88mCyawq-PwxwcCo3Ut-129" value="Objetos&lt;div&gt;Inventario&lt;/div&gt;" style="rounded=0;whiteSpace=wrap;html=1;" vertex="1" parent="1">
          <mxGeometry x="580" y="524" width="120" height="60" as="geometry" />
        </mxCell>
        <mxCell id="p88mCyawq-PwxwcCo3Ut-132" style="edgeStyle=orthogonalEdgeStyle;rounded=0;orthogonalLoop=1;jettySize=auto;html=1;exitX=1;exitY=0.5;exitDx=0;exitDy=0;entryX=0.5;entryY=1;entryDx=0;entryDy=0;" edge="1" parent="1" source="p88mCyawq-PwxwcCo3Ut-131" target="p88mCyawq-PwxwcCo3Ut-129">
          <mxGeometry relative="1" as="geometry" />
        </mxCell>
        <mxCell id="p88mCyawq-PwxwcCo3Ut-131" value="&lt;u&gt;idObjeto&lt;/u&gt;" style="ellipse;whiteSpace=wrap;html=1;" vertex="1" parent="1">
          <mxGeometry x="480" y="605" width="90" height="45" as="geometry" />
        </mxCell>
        <mxCell id="p88mCyawq-PwxwcCo3Ut-134" style="edgeStyle=orthogonalEdgeStyle;rounded=0;orthogonalLoop=1;jettySize=auto;html=1;exitX=1;exitY=0.5;exitDx=0;exitDy=0;entryX=0.5;entryY=1;entryDx=0;entryDy=0;" edge="1" parent="1" source="p88mCyawq-PwxwcCo3Ut-133" target="p88mCyawq-PwxwcCo3Ut-129">
          <mxGeometry relative="1" as="geometry" />
        </mxCell>
        <mxCell id="p88mCyawq-PwxwcCo3Ut-133" value="nombre&amp;nbsp;" style="ellipse;whiteSpace=wrap;html=1;" vertex="1" parent="1">
          <mxGeometry x="478" y="658" width="92" height="40" as="geometry" />
        </mxCell>
        <mxCell id="p88mCyawq-PwxwcCo3Ut-136" style="edgeStyle=orthogonalEdgeStyle;rounded=0;orthogonalLoop=1;jettySize=auto;html=1;exitX=1;exitY=0.5;exitDx=0;exitDy=0;entryX=0.5;entryY=1;entryDx=0;entryDy=0;" edge="1" parent="1" source="p88mCyawq-PwxwcCo3Ut-135" target="p88mCyawq-PwxwcCo3Ut-129">
          <mxGeometry relative="1" as="geometry" />
        </mxCell>
        <mxCell id="p88mCyawq-PwxwcCo3Ut-135" value="descripcion" style="ellipse;whiteSpace=wrap;html=1;" vertex="1" parent="1">
          <mxGeometry x="478" y="706" width="82" height="34" as="geometry" />
        </mxCell>
        <mxCell id="p88mCyawq-PwxwcCo3Ut-137" value="tiene" style="rhombus;whiteSpace=wrap;html=1;" vertex="1" parent="1">
          <mxGeometry x="718" y="370" width="80" height="80" as="geometry" />
        </mxCell>
        <mxCell id="p88mCyawq-PwxwcCo3Ut-141" value="1:n" style="text;html=1;align=center;verticalAlign=middle;whiteSpace=wrap;rounded=0;" vertex="1" parent="1">
          <mxGeometry x="695" y="513" width="60" height="30" as="geometry" />
        </mxCell>
        <mxCell id="p88mCyawq-PwxwcCo3Ut-142" value="1:1" style="text;html=1;align=center;verticalAlign=middle;whiteSpace=wrap;rounded=0;" vertex="1" parent="1">
          <mxGeometry x="700" y="290" width="60" height="30" as="geometry" />
        </mxCell>
      </root>
    </mxGraphModel>
  </diagram>
</mxfile>
